<svg width="23" height="23" viewBox="0 0 23 23" fill="none" xmlns="http://www.w3.org/2000/svg">
<path d="M12.8662 1.29871C13.2433 1.32074 13.6003 1.47024 13.8799 1.7196L13.9951 1.83289L14 1.83777L14.0049 1.84363L21.5898 10.6923H21.5889C21.8481 10.9943 21.9911 11.3792 21.9912 11.7772C21.9912 12.1753 21.848 12.5601 21.5889 12.8622L14.0049 21.7118L14 21.7177L13.9951 21.7225C13.7021 22.0396 13.2972 22.2315 12.8662 22.2567C12.4354 22.2818 12.0114 22.1389 11.6836 21.8583C11.3557 21.5775 11.1488 21.1796 11.1074 20.7499C11.0661 20.3203 11.1937 19.8917 11.4619 19.5536L11.4658 19.5468L11.4717 19.5409L18.125 11.7772L11.4717 4.01453L11.4658 4.00867L11.4619 4.00183C11.1937 3.66369 11.0662 3.23512 11.1074 2.80554C11.1488 2.37581 11.3557 1.97797 11.6836 1.69714C12.0114 1.41652 12.4354 1.27357 12.8662 1.29871Z" fill="#175730" stroke="#175730" stroke-width="0.809524"/>
<path d="M2.74121 1.26685C3.18205 1.30124 3.59126 1.50919 3.87891 1.84497L11.4648 10.6936V10.6946C11.7233 10.9968 11.8652 11.3818 11.8652 11.7795C11.8651 12.1771 11.7232 12.5614 11.4648 12.8635V12.8645L3.87988 21.7131L3.875 21.719L3.87012 21.7239C3.57714 22.041 3.1722 22.2329 2.74121 22.2581C2.31039 22.2832 1.88642 22.1403 1.55859 21.8596C1.23079 21.5789 1.02392 21.1818 0.982422 20.7522C0.94102 20.3225 1.06865 19.8932 1.33691 19.5549L1.34082 19.5491L1.34668 19.5432L7.99902 11.7786L1.34375 4.01587V4.01489C1.05616 3.67861 0.913928 3.24216 0.948242 2.80103C0.982669 2.35974 1.19096 1.95005 1.52734 1.66235C1.86362 1.37476 2.30007 1.23254 2.74121 1.26685Z" fill="#175730" stroke="#175730" stroke-width="0.809524"/>
</svg>
